<svg width="152" height="152" viewBox="0 0 152 152" fill="none" xmlns="http://www.w3.org/2000/svg">
<g clip-path="url(#clip0_14_1062)">
<g style="mix-blend-mode:hard-light" filter="url(#filter0_f_14_1062)">
<mask id="path-1-inside-1_14_1062" fill="white">
<path d="M140 76C140 111.346 111.346 140 76 140C40.6538 140 12 111.346 12 76C12 40.6538 40.6538 12 76 12C111.346 12 140 40.6538 140 76ZM31.2 76C31.2 100.742 51.2576 120.8 76 120.8C100.742 120.8 120.8 100.742 120.8 76C120.8 51.2576 100.742 31.2 76 31.2C51.2576 31.2 31.2 51.2576 31.2 76Z"/>
</mask>
<path d="M140 76C140 111.346 111.346 140 76 140C40.6538 140 12 111.346 12 76C12 40.6538 40.6538 12 76 12C111.346 12 140 40.6538 140 76ZM31.2 76C31.2 100.742 51.2576 120.8 76 120.8C100.742 120.8 120.8 100.742 120.8 76C120.8 51.2576 100.742 31.2 76 31.2C51.2576 31.2 31.2 51.2576 31.2 76Z" stroke="#0094FF" stroke-width="6.93333" mask="url(#path-1-inside-1_14_1062)"/>
</g>
<g style="mix-blend-mode:hard-light" filter="url(#filter1_f_14_1062)">
<mask id="path-2-inside-2_14_1062" fill="white">
<path d="M140 76C140 111.346 111.346 140 76 140C40.6538 140 12 111.346 12 76C12 40.6538 40.6538 12 76 12C111.346 12 140 40.6538 140 76ZM31.2 76C31.2 100.742 51.2576 120.8 76 120.8C100.742 120.8 120.8 100.742 120.8 76C120.8 51.2576 100.742 31.2 76 31.2C51.2576 31.2 31.2 51.2576 31.2 76Z"/>
</mask>
<path d="M140 76C140 111.346 111.346 140 76 140C40.6538 140 12 111.346 12 76C12 40.6538 40.6538 12 76 12C111.346 12 140 40.6538 140 76ZM31.2 76C31.2 100.742 51.2576 120.8 76 120.8C100.742 120.8 120.8 100.742 120.8 76C120.8 51.2576 100.742 31.2 76 31.2C51.2576 31.2 31.2 51.2576 31.2 76Z" stroke="#0094FF" stroke-width="9.06667" mask="url(#path-2-inside-2_14_1062)"/>
</g>
<g style="mix-blend-mode:hard-light" filter="url(#filter2_ddi_14_1062)">
<mask id="path-3-inside-3_14_1062" fill="white">
<path d="M140 76C140 111.346 111.346 140 76 140C40.6538 140 12 111.346 12 76C12 40.6538 40.6538 12 76 12C111.346 12 140 40.6538 140 76ZM31.2 76C31.2 100.742 51.2576 120.8 76 120.8C100.742 120.8 120.8 100.742 120.8 76C120.8 51.2576 100.742 31.2 76 31.2C51.2576 31.2 31.2 51.2576 31.2 76Z"/>
</mask>
<path d="M140 76C140 111.346 111.346 140 76 140C40.6538 140 12 111.346 12 76C12 40.6538 40.6538 12 76 12C111.346 12 140 40.6538 140 76ZM31.2 76C31.2 100.742 51.2576 120.8 76 120.8C100.742 120.8 120.8 100.742 120.8 76C120.8 51.2576 100.742 31.2 76 31.2C51.2576 31.2 31.2 51.2576 31.2 76Z" stroke="#00B3FF" stroke-opacity="0.2" stroke-width="6.93333" mask="url(#path-3-inside-3_14_1062)"/>
</g>
<g filter="url(#filter3_f_14_1062)">
<mask id="path-4-inside-4_14_1062" fill="white">
<path d="M140 76C140 111.346 111.346 140 76 140C40.6538 140 12 111.346 12 76C12 40.6538 40.6538 12 76 12C111.346 12 140 40.6538 140 76ZM31.2 76C31.2 100.742 51.2576 120.8 76 120.8C100.742 120.8 120.8 100.742 120.8 76C120.8 51.2576 100.742 31.2 76 31.2C51.2576 31.2 31.2 51.2576 31.2 76Z"/>
</mask>
<path d="M140 76C140 111.346 111.346 140 76 140C40.6538 140 12 111.346 12 76C12 40.6538 40.6538 12 76 12C111.346 12 140 40.6538 140 76ZM31.2 76C31.2 100.742 51.2576 120.8 76 120.8C100.742 120.8 120.8 100.742 120.8 76C120.8 51.2576 100.742 31.2 76 31.2C51.2576 31.2 31.2 51.2576 31.2 76Z" stroke="#82D9FF" stroke-width="4.26667" mask="url(#path-4-inside-4_14_1062)"/>
</g>
<g filter="url(#filter4_f_14_1062)">
<mask id="path-5-inside-5_14_1062" fill="white">
<path d="M140 76C140 111.346 111.346 140 76 140C40.6538 140 12 111.346 12 76C12 40.6538 40.6538 12 76 12C111.346 12 140 40.6538 140 76ZM31.2 76C31.2 100.742 51.2576 120.8 76 120.8C100.742 120.8 120.8 100.742 120.8 76C120.8 51.2576 100.742 31.2 76 31.2C51.2576 31.2 31.2 51.2576 31.2 76Z"/>
</mask>
<path d="M140 76C140 111.346 111.346 140 76 140C40.6538 140 12 111.346 12 76C12 40.6538 40.6538 12 76 12C111.346 12 140 40.6538 140 76ZM31.2 76C31.2 100.742 51.2576 120.8 76 120.8C100.742 120.8 120.8 100.742 120.8 76C120.8 51.2576 100.742 31.2 76 31.2C51.2576 31.2 31.2 51.2576 31.2 76Z" stroke="white" stroke-width="2.13333" mask="url(#path-5-inside-5_14_1062)"/>
</g>
</g>
<defs>
<filter id="filter0_f_14_1062" x="-4" y="-4" width="160" height="160" filterUnits="userSpaceOnUse" color-interpolation-filters="sRGB">
<feFlood flood-opacity="0" result="BackgroundImageFix"/>
<feBlend mode="normal" in="SourceGraphic" in2="BackgroundImageFix" result="shape"/>
<feGaussianBlur stdDeviation="8" result="effect1_foregroundBlur_14_1062"/>
</filter>
<filter id="filter1_f_14_1062" x="6.66667" y="6.66667" width="138.667" height="138.667" filterUnits="userSpaceOnUse" color-interpolation-filters="sRGB">
<feFlood flood-opacity="0" result="BackgroundImageFix"/>
<feBlend mode="normal" in="SourceGraphic" in2="BackgroundImageFix" result="shape"/>
<feGaussianBlur stdDeviation="2.66667" result="effect1_foregroundBlur_14_1062"/>
</filter>
<filter id="filter2_ddi_14_1062" x="5.06667" y="10.4" width="141.867" height="141.867" filterUnits="userSpaceOnUse" color-interpolation-filters="sRGB">
<feFlood flood-opacity="0" result="BackgroundImageFix"/>
<feColorMatrix in="SourceAlpha" type="matrix" values="0 0 0 0 0 0 0 0 0 0 0 0 0 0 0 0 0 0 127 0" result="hardAlpha"/>
<feOffset dy="3.46667"/>
<feGaussianBlur stdDeviation="1.33333"/>
<feColorMatrix type="matrix" values="0 0 0 0 0 0 0 0 0 0.051 0 0 0 0 0.082 0 0 0 0.7 0"/>
<feBlend mode="multiply" in2="BackgroundImageFix" result="effect1_dropShadow_14_1062"/>
<feColorMatrix in="SourceAlpha" type="matrix" values="0 0 0 0 0 0 0 0 0 0 0 0 0 0 0 0 0 0 127 0" result="hardAlpha"/>
<feOffset dy="5.33333"/>
<feGaussianBlur stdDeviation="3.46667"/>
<feColorMatrix type="matrix" values="0 0 0 0 0 0 0 0 0 0.4 0 0 0 0 1 0 0 0 1 0"/>
<feBlend mode="color-dodge" in2="effect1_dropShadow_14_1062" result="effect2_dropShadow_14_1062"/>
<feBlend mode="normal" in="SourceGraphic" in2="effect2_dropShadow_14_1062" result="shape"/>
<feColorMatrix in="SourceAlpha" type="matrix" values="0 0 0 0 0 0 0 0 0 0 0 0 0 0 0 0 0 0 127 0" result="hardAlpha"/>
<feOffset dx="-0.346667" dy="0.693333"/>
<feGaussianBlur stdDeviation="0.173333"/>
<feComposite in2="hardAlpha" operator="arithmetic" k2="-1" k3="1"/>
<feColorMatrix type="matrix" values="0 0 0 0 1 0 0 0 0 1 0 0 0 0 1 0 0 0 0.5 0"/>
<feBlend mode="normal" in2="shape" result="effect3_innerShadow_14_1062"/>
</filter>
<filter id="filter3_f_14_1062" x="11.4667" y="11.4667" width="129.067" height="129.067" filterUnits="userSpaceOnUse" color-interpolation-filters="sRGB">
<feFlood flood-opacity="0" result="BackgroundImageFix"/>
<feBlend mode="normal" in="SourceGraphic" in2="BackgroundImageFix" result="shape"/>
<feGaussianBlur stdDeviation="0.266667" result="effect1_foregroundBlur_14_1062"/>
</filter>
<filter id="filter4_f_14_1062" x="11.6444" y="11.6444" width="128.711" height="128.711" filterUnits="userSpaceOnUse" color-interpolation-filters="sRGB">
<feFlood flood-opacity="0" result="BackgroundImageFix"/>
<feBlend mode="normal" in="SourceGraphic" in2="BackgroundImageFix" result="shape"/>
<feGaussianBlur stdDeviation="0.177778" result="effect1_foregroundBlur_14_1062"/>
</filter>
<clipPath id="clip0_14_1062">
<rect width="152" height="152" fill="white"/>
</clipPath>
</defs>
</svg>
